<svg width="32" height="32" viewBox="0 0 32 32" fill="none" xmlns="http://www.w3.org/2000/svg">
<g clip-path="url(#clip0_1166_6444)">
<path d="M22.6667 26.6704H22.4C20.1598 26.6704 19.0397 26.6704 18.184 26.2344C17.4314 25.8509 16.8195 25.239 16.436 24.4864C16 23.6307 16 22.5106 16 20.2704V11.7371C16 9.49687 16 8.37676 16.436 7.52112C16.8195 6.76847 17.4314 6.15654 18.184 5.77305C19.0397 5.33708 20.1598 5.33708 22.4 5.33708H22.6667M22.6667 26.6704C22.6667 28.1432 23.8606 29.3371 25.3333 29.3371C26.8061 29.3371 28 28.1432 28 26.6704C28 25.1977 26.8061 24.0037 25.3333 24.0037C23.8606 24.0037 22.6667 25.1977 22.6667 26.6704ZM22.6667 5.33708C22.6667 6.80984 23.8606 8.00374 25.3333 8.00374C26.8061 8.00374 28 6.80984 28 5.33708C28 3.86432 26.8061 2.67041 25.3333 2.67041C23.8606 2.67041 22.6667 3.86432 22.6667 5.33708ZM9.33333 16.0037L22.6667 16.0037M9.33333 16.0037C9.33333 17.4765 8.13943 18.6704 6.66667 18.6704C5.19391 18.6704 4 17.4765 4 16.0037C4 14.531 5.19391 13.3371 6.66667 13.3371C8.13943 13.3371 9.33333 14.531 9.33333 16.0037ZM22.6667 16.0037C22.6667 17.4765 23.8606 18.6704 25.3333 18.6704C26.8061 18.6704 28 17.4765 28 16.0037C28 14.531 26.8061 13.3371 25.3333 13.3371C23.8606 13.3371 22.6667 14.531 22.6667 16.0037Z" stroke="white" stroke-width="2.66667" stroke-linecap="round" stroke-linejoin="round"/>
</g>
<defs>
<clipPath id="clip0_1166_6444">
<rect width="32" height="32" fill="white"/>
</clipPath>
</defs>
</svg>
