<svg width="32" height="32" viewBox="0 0 32 32" fill="none" xmlns="http://www.w3.org/2000/svg">
<g clip-path="url(#clip0_1166_6070)">
<path d="M16 30.404L15.8399 30.1639C14.7285 28.4967 14.1728 27.6632 13.4386 27.0597C12.7886 26.5255 12.0396 26.1247 11.2346 25.8802C10.3252 25.604 9.32337 25.604 7.31972 25.604H5.12C3.32783 25.604 2.43175 25.604 1.74723 25.2552C1.14511 24.9484 0.655574 24.4589 0.348779 23.8568C0 23.1723 0 22.2762 0 20.484V6.724C0 4.93184 0 4.03575 0.348779 3.35123C0.655574 2.74912 1.14511 2.25958 1.74723 1.95278C2.43175 1.604 3.32783 1.604 5.12 1.604H5.76C9.34434 1.604 11.1365 1.604 12.5055 2.30156C13.7098 2.91515 14.6889 3.89423 15.3024 5.09846C16 6.4675 16 8.25967 16 11.844M16 30.404V11.844M16 30.404L16.1601 30.1639C17.2715 28.4967 17.8272 27.6632 18.5614 27.0597C19.2114 26.5255 19.9604 26.1247 20.7654 25.8802C21.6748 25.604 22.6766 25.604 24.6803 25.604H26.88C28.6722 25.604 29.5683 25.604 30.2528 25.2552C30.8549 24.9484 31.3444 24.4589 31.6512 23.8568C32 23.1723 32 22.2762 32 20.484V6.724C32 4.93184 32 4.03575 31.6512 3.35123C31.3444 2.74912 30.8549 2.25958 30.2528 1.95278C29.5683 1.604 28.6722 1.604 26.88 1.604H26.24C22.6557 1.604 20.8635 1.604 19.4945 2.30156C18.2902 2.91515 17.3111 3.89423 16.6976 5.09846C16 6.4675 16 8.25967 16 11.844" stroke="white" stroke-width="3.2" stroke-linecap="round" stroke-linejoin="round"/>
</g>
<defs>
<clipPath id="clip0_1166_6070">
<rect width="32" height="32" fill="white"/>
</clipPath>
</defs>
</svg>
