<svg width="32" height="32" viewBox="0 0 32 32" fill="none" xmlns="http://www.w3.org/2000/svg">
<g clip-path="url(#clip0_1166_6059)">
<path d="M18.0392 11.1396C17.2759 11.6837 16.3419 12.0037 15.3332 12.0037C12.7558 12.0037 10.6665 9.91441 10.6665 7.33708C10.6665 4.75975 12.7558 2.67041 15.3332 2.67041C17.0038 2.67041 18.4694 3.5483 19.2938 4.86793M7.99984 26.7866H11.4802C11.934 26.7866 12.385 26.8406 12.8249 26.9486L16.5024 27.8423C17.3003 28.0366 18.1315 28.0555 18.9378 27.8989L23.0038 27.1079C24.0779 26.8987 25.0659 26.3843 25.8403 25.6311L28.717 22.8327C29.5386 22.0349 29.5386 20.7403 28.717 19.9412C27.9774 19.2217 26.8061 19.1407 25.9693 19.7508L22.6166 22.1969C22.1365 22.5479 21.5523 22.7369 20.9514 22.7369H17.7138L19.7746 22.7368C20.9361 22.7368 21.877 21.8215 21.877 20.6916V20.2826C21.877 19.3444 21.2206 18.5264 20.2853 18.2996L17.1046 17.5261C16.587 17.4005 16.0569 17.3371 15.524 17.3371C14.2376 17.3371 11.909 18.4022 11.909 18.4022L7.99984 20.0369M26.6665 8.67041C26.6665 11.2477 24.5772 13.3371 21.9998 13.3371C19.4225 13.3371 17.3332 11.2477 17.3332 8.67041C17.3332 6.09308 19.4225 4.00374 21.9998 4.00374C24.5772 4.00374 26.6665 6.09308 26.6665 8.67041ZM2.6665 19.4704L2.6665 27.2037C2.6665 27.9505 2.6665 28.3238 2.81183 28.6091C2.93966 28.8599 3.14363 29.0639 3.39452 29.1918C3.67973 29.3371 4.0531 29.3371 4.79984 29.3371H5.8665C6.61324 29.3371 6.98661 29.3371 7.27182 29.1918C7.52271 29.0639 7.72668 28.8599 7.85451 28.6091C7.99984 28.3238 7.99984 27.9505 7.99984 27.2037V19.4704C7.99984 18.7237 7.99984 18.3503 7.85451 18.0651C7.72668 17.8142 7.52271 17.6102 7.27182 17.4824C6.98661 17.3371 6.61324 17.3371 5.8665 17.3371L4.79984 17.3371C4.0531 17.3371 3.67973 17.3371 3.39452 17.4824C3.14363 17.6102 2.93966 17.8142 2.81183 18.0651C2.6665 18.3503 2.6665 18.7237 2.6665 19.4704Z" stroke="white" stroke-width="2.66667" stroke-linecap="round" stroke-linejoin="round"/>
</g>
<defs>
<clipPath id="clip0_1166_6059">
<rect width="32" height="32" fill="white"/>
</clipPath>
</defs>
</svg>
