<svg width="32" height="32" viewBox="0 0 32 32" fill="none" xmlns="http://www.w3.org/2000/svg">
<path d="M29.3332 28V25.3333C29.3332 22.8482 27.6335 20.7601 25.3332 20.168M20.6665 4.38768C22.6211 5.17886 23.9998 7.09508 23.9998 9.33333C23.9998 11.5716 22.6211 13.4878 20.6665 14.279M22.6665 28C22.6665 25.515 22.6665 24.2725 22.2605 23.2924C21.7192 21.9855 20.681 20.9473 19.3741 20.406C18.394 20 17.1515 20 14.6665 20H10.6665C8.18148 20 6.93897 20 5.95886 20.406C4.65204 20.9473 3.61378 21.9855 3.07248 23.2924C2.6665 24.2725 2.6665 25.515 2.6665 28M17.9998 9.33333C17.9998 12.2789 15.612 14.6667 12.6665 14.6667C9.72099 14.6667 7.33317 12.2789 7.33317 9.33333C7.33317 6.38781 9.72099 4 12.6665 4C15.612 4 17.9998 6.38781 17.9998 9.33333Z" stroke="white" stroke-width="2.66667" stroke-linecap="round" stroke-linejoin="round"/>
</svg>
