<svg width="36" height="33" viewBox="0 0 36 33" fill="none" xmlns="http://www.w3.org/2000/svg">
<path d="M8.0957 30.2601C10.0317 31.1401 12.4957 31.1401 14.4317 30.2601C16.3677 29.3801 18.8317 29.3801 20.7677 30.2601C22.7037 31.1401 25.1677 31.1401 27.1037 30.2601M17.5996 1.6001V4.8001M4.79961 17.6001H1.59961M8.5022 8.50268L6.23945 6.23994M26.6965 8.50268L28.9592 6.23994M33.5996 17.6001H30.3996M9.59961 17.6001C9.59961 13.1818 13.1813 9.6001 17.5996 9.6001C22.0179 9.6001 25.5996 13.1818 25.5996 17.6001M1.75977 24.6601C3.69577 23.7801 6.15977 23.7801 8.09577 24.6601C10.0318 25.5401 12.4958 25.5401 14.4318 24.6601C16.3678 23.7801 18.8318 23.7801 20.7678 24.6601C22.7038 25.5401 25.1678 25.5401 27.1038 24.6601C29.0398 23.7801 31.5038 23.7801 33.4398 24.6601" stroke="white" stroke-width="3.2" stroke-linecap="round" stroke-linejoin="round"/>
</svg>
