<svg width="32" height="32" viewBox="0 0 32 32" fill="none" xmlns="http://www.w3.org/2000/svg">
<path d="M26.6667 15.9998C26.6667 21.8909 21.8911 26.6665 16.0001 26.6665M26.6667 15.9998C26.6667 10.1088 21.8911 5.33317 16.0001 5.33317M26.6667 15.9998H5.33341M16.0001 26.6665C10.109 26.6665 5.33341 21.8909 5.33341 15.9998M16.0001 26.6665C18.6681 23.7456 20.1851 19.955 20.2675 15.9998C20.1851 12.0447 18.6681 8.25408 16.0001 5.33317M16.0001 26.6665C13.332 23.7456 11.8165 19.955 11.7342 15.9998C11.8165 12.0447 13.332 8.25408 16.0001 5.33317M5.33341 15.9998C5.33341 10.1088 10.109 5.33317 16.0001 5.33317M8.00008 26.6665C8.00008 28.1393 6.80617 29.3332 5.33341 29.3332C3.86066 29.3332 2.66675 28.1393 2.66675 26.6665C2.66675 25.1937 3.86066 23.9998 5.33341 23.9998C6.80617 23.9998 8.00008 25.1937 8.00008 26.6665ZM29.3334 26.6665C29.3334 28.1393 28.1395 29.3332 26.6667 29.3332C25.194 29.3332 24.0001 28.1393 24.0001 26.6665C24.0001 25.1937 25.194 23.9998 26.6667 23.9998C28.1395 23.9998 29.3334 25.1937 29.3334 26.6665ZM8.00008 5.33317C8.00008 6.80593 6.80617 7.99984 5.33341 7.99984C3.86066 7.99984 2.66675 6.80593 2.66675 5.33317C2.66675 3.86041 3.86066 2.6665 5.33341 2.6665C6.80617 2.6665 8.00008 3.86041 8.00008 5.33317ZM29.3334 5.33317C29.3334 6.80593 28.1395 7.99984 26.6667 7.99984C25.194 7.99984 24.0001 6.80593 24.0001 5.33317C24.0001 3.86041 25.194 2.6665 26.6667 2.6665C28.1395 2.6665 29.3334 3.86041 29.3334 5.33317Z" stroke="white" stroke-width="2.66667" stroke-linecap="round" stroke-linejoin="round"/>
</svg>
