<svg width="145" height="28" viewBox="0 0 145 28" fill="none" xmlns="http://www.w3.org/2000/svg">
<path d="M0 8.80723C0 3.03334 3.50454 0.292969 9.2742 0.292969H17.0517V5.26478H10.0417C7.52193 5.26478 6.42711 6.61675 6.42711 9.21145V12.062H16.5042V17.0338H6.42711V27.7076H0V8.80723Z" fill="#1D477E"/>
<path d="M20.8134 0.292969H27.166V17.4726C27.166 21.1653 29.1374 22.8459 32.2782 22.8459C35.419 22.8459 37.3531 21.1653 37.3531 17.4726V0.292969H43.7057V17.9114C43.7057 24.5657 39.1054 28.0007 32.2773 28.0007C25.4491 28.0007 20.8125 24.7478 20.8125 17.9114V0.292969H20.8134Z" fill="#1D477E"/>
<path d="M86.1014 22.7358C90.9581 22.7358 93.2205 20.2139 93.2205 15.1337V12.245C93.2205 7.38424 90.7007 5.26478 85.9195 5.26478H82.9988V22.7358H86.1014ZM76.5698 0.292969H86.6852C95.3037 0.292969 99.6103 4.78863 99.6103 11.8799V15.5361C99.6103 22.6629 95.7047 27.7094 86.8679 27.7094H76.5707V0.292969H76.5698Z" fill="#1D477E"/>
<path d="M103.629 0.292969H121.665V5.26478H110.056V11.1479H120.316V16.1206H110.056V19.4455C110.056 21.9337 110.931 22.7358 113.196 22.7358H121.813V27.7085H110.713C106.037 27.7085 103.629 25.0391 103.629 20.2867V0.292969Z" fill="#1D477E"/>
<path d="M125.756 21.8947H126.05C127.692 22.4419 131.198 23.0282 133.24 23.0282H134.191C136.672 23.0282 138.609 22.2971 138.609 19.8108C138.609 17.7996 137.37 17.2152 135.323 16.6307L131.635 15.5345C128.787 14.6924 125.866 12.572 125.866 8.07726C125.866 2.52278 130.612 0 136.163 0H136.82C138.826 0 142.258 0.47524 143.756 1.05973V5.84763H143.465C142.077 5.44705 138.79 4.96999 137.002 4.96999H136.273C134.009 4.96999 132.217 5.62822 132.217 7.78501C132.217 9.68415 133.641 10.234 135.139 10.6729L138.756 11.7699C142.335 12.867 145 14.767 145 19.4448C145 25.3325 140.472 28 134.556 28H133.24C131.16 28 127.436 27.38 125.755 26.8683V21.8965L125.756 21.8947Z" fill="#1D477E"/>
<path d="M68.7613 27.7085H66.3461L54.8441 12.0829V27.7085H48.417V0.292969H52.3289C53.3064 0.292969 54.0312 0.800073 54.5895 1.61399L54.6713 1.71049L65.1768 16.6687V0.292969H71.5693V25.1192C71.5693 26.5504 70.409 27.7085 68.9805 27.7085H68.7622H68.7613Z" fill="#1D477E"/>
<path d="M0 8.80723C0 3.03334 3.50454 0.292969 9.2742 0.292969H17.0517V5.26478H10.0417C7.52193 5.26478 6.42711 6.61675 6.42711 9.21145V12.062H16.5042V17.0338H6.42711V27.7076H0V8.80723Z" fill="#1D477E"/>
<path d="M20.8134 0.292969H27.166V17.4726C27.166 21.1653 29.1374 22.8459 32.2782 22.8459C35.419 22.8459 37.3531 21.1653 37.3531 17.4726V0.292969H43.7057V17.9114C43.7057 24.5657 39.1054 28.0007 32.2773 28.0007C25.4491 28.0007 20.8125 24.7478 20.8125 17.9114V0.292969H20.8134Z" fill="#1D477E"/>
<path d="M86.1014 22.7358C90.9581 22.7358 93.2205 20.2139 93.2205 15.1337V12.245C93.2205 7.38424 90.7007 5.26478 85.9195 5.26478H82.9988V22.7358H86.1014ZM76.5698 0.292969H86.6852C95.3037 0.292969 99.6103 4.78863 99.6103 11.8799V15.5361C99.6103 22.6629 95.7047 27.7094 86.8679 27.7094H76.5707V0.292969H76.5698Z" fill="#1D477E"/>
<path d="M103.629 0.292969H121.665V5.26478H110.056V11.1479H120.316V16.1206H110.056V19.4455C110.056 21.9337 110.931 22.7358 113.196 22.7358H121.813V27.7085H110.713C106.037 27.7085 103.629 25.0391 103.629 20.2867V0.292969Z" fill="#1D477E"/>
<path d="M125.756 21.8947H126.05C127.692 22.4419 131.198 23.0282 133.24 23.0282H134.191C136.672 23.0282 138.609 22.2971 138.609 19.8108C138.609 17.7996 137.37 17.2152 135.323 16.6307L131.635 15.5345C128.787 14.6924 125.866 12.572 125.866 8.07726C125.866 2.52278 130.612 0 136.163 0H136.82C138.826 0 142.258 0.47524 143.756 1.05973V5.84763H143.465C142.077 5.44705 138.79 4.96999 137.002 4.96999H136.273C134.009 4.96999 132.217 5.62822 132.217 7.78501C132.217 9.68415 133.641 10.234 135.139 10.6729L138.756 11.7699C142.335 12.867 145 14.767 145 19.4448C145 25.3325 140.472 28 134.556 28H133.24C131.16 28 127.436 27.38 125.755 26.8683V21.8965L125.756 21.8947Z" fill="#1D477E"/>
<path d="M68.7613 27.7085H66.3461L54.8441 12.0829V27.7085H48.417V0.292969H52.3289C53.3064 0.292969 54.0312 0.800073 54.5895 1.61399L54.6713 1.71049L65.1768 16.6687V0.292969H71.5693V25.1192C71.5693 26.5504 70.409 27.7085 68.9805 27.7085H68.7622H68.7613Z" fill="#1D477E"/>
<path d="M0 8.80723C0 3.03334 3.50454 0.292969 9.2742 0.292969H17.0517V5.26478H10.0417C7.52193 5.26478 6.42711 6.61675 6.42711 9.21145V12.062H16.5042V17.0338H6.42711V27.7076H0V8.80723Z" fill="#1D477E"/>
<path d="M20.8134 0.292969H27.166V17.4726C27.166 21.1653 29.1374 22.8459 32.2782 22.8459C35.419 22.8459 37.3531 21.1653 37.3531 17.4726V0.292969H43.7057V17.9114C43.7057 24.5657 39.1054 28.0007 32.2773 28.0007C25.4491 28.0007 20.8125 24.7478 20.8125 17.9114V0.292969H20.8134Z" fill="#1D477E"/>
<path d="M86.1014 22.7358C90.9581 22.7358 93.2205 20.2139 93.2205 15.1337V12.245C93.2205 7.38424 90.7007 5.26478 85.9195 5.26478H82.9988V22.7358H86.1014ZM76.5698 0.292969H86.6852C95.3037 0.292969 99.6103 4.78863 99.6103 11.8799V15.5361C99.6103 22.6629 95.7047 27.7094 86.8679 27.7094H76.5707V0.292969H76.5698Z" fill="#1D477E"/>
<path d="M103.629 0.292969H121.665V5.26478H110.056V11.1479H120.316V16.1206H110.056V19.4455C110.056 21.9337 110.931 22.7358 113.196 22.7358H121.813V27.7085H110.713C106.037 27.7085 103.629 25.0391 103.629 20.2867V0.292969Z" fill="#1D477E"/>
<path d="M125.756 21.8947H126.05C127.692 22.4419 131.198 23.0282 133.24 23.0282H134.191C136.672 23.0282 138.609 22.2971 138.609 19.8108C138.609 17.7996 137.37 17.2152 135.323 16.6307L131.635 15.5345C128.787 14.6924 125.866 12.572 125.866 8.07726C125.866 2.52278 130.612 0 136.163 0H136.82C138.826 0 142.258 0.47524 143.756 1.05973V5.84763H143.465C142.077 5.44705 138.79 4.96999 137.002 4.96999H136.273C134.009 4.96999 132.217 5.62822 132.217 7.78501C132.217 9.68415 133.641 10.234 135.139 10.6729L138.756 11.7699C142.335 12.867 145 14.767 145 19.4448C145 25.3325 140.472 28 134.556 28H133.24C131.16 28 127.436 27.38 125.755 26.8683V21.8965L125.756 21.8947Z" fill="#1D477E"/>
<path d="M68.7613 27.7085H66.3461L54.8441 12.0829V27.7085H48.417V0.292969H52.3289C53.3064 0.292969 54.0312 0.800073 54.5895 1.61399L54.6713 1.71049L65.1768 16.6687V0.292969H71.5693V25.1192C71.5693 26.5504 70.409 27.7085 68.9805 27.7085H68.7622H68.7613Z" fill="#1D477E"/>
<path d="M0 8.80723C0 3.03334 3.50454 0.292969 9.2742 0.292969H17.0517V5.26478H10.0417C7.52193 5.26478 6.42711 6.61675 6.42711 9.21145V12.062H16.5042V17.0338H6.42711V27.7076H0V8.80723Z" fill="#1D477E"/>
<path d="M20.8134 0.292969H27.166V17.4726C27.166 21.1653 29.1374 22.8459 32.2782 22.8459C35.419 22.8459 37.3531 21.1653 37.3531 17.4726V0.292969H43.7057V17.9114C43.7057 24.5657 39.1054 28.0007 32.2773 28.0007C25.4491 28.0007 20.8125 24.7478 20.8125 17.9114V0.292969H20.8134Z" fill="#1D477E"/>
<path d="M86.1014 22.7358C90.9581 22.7358 93.2205 20.2139 93.2205 15.1337V12.245C93.2205 7.38424 90.7007 5.26478 85.9195 5.26478H82.9988V22.7358H86.1014ZM76.5698 0.292969H86.6852C95.3037 0.292969 99.6103 4.78863 99.6103 11.8799V15.5361C99.6103 22.6629 95.7047 27.7094 86.8679 27.7094H76.5707V0.292969H76.5698Z" fill="#1D477E"/>
<path d="M103.629 0.292969H121.665V5.26478H110.056V11.1479H120.316V16.1206H110.056V19.4455C110.056 21.9337 110.931 22.7358 113.196 22.7358H121.813V27.7085H110.713C106.037 27.7085 103.629 25.0391 103.629 20.2867V0.292969Z" fill="#1D477E"/>
<path d="M125.756 21.8947H126.05C127.692 22.4419 131.198 23.0282 133.24 23.0282H134.191C136.672 23.0282 138.609 22.2971 138.609 19.8108C138.609 17.7996 137.37 17.2152 135.323 16.6307L131.635 15.5345C128.787 14.6924 125.866 12.572 125.866 8.07726C125.866 2.52278 130.612 0 136.163 0H136.82C138.826 0 142.258 0.47524 143.756 1.05973V5.84763H143.465C142.077 5.44705 138.79 4.96999 137.002 4.96999H136.273C134.009 4.96999 132.217 5.62822 132.217 7.78501C132.217 9.68415 133.641 10.234 135.139 10.6729L138.756 11.7699C142.335 12.867 145 14.767 145 19.4448C145 25.3325 140.472 28 134.556 28H133.24C131.16 28 127.436 27.38 125.755 26.8683V21.8965L125.756 21.8947Z" fill="#1D477E"/>
<path d="M68.7613 27.7085H66.3461L54.8441 12.0829V27.7085H48.417V0.292969H52.3289C53.3064 0.292969 54.0312 0.800073 54.5895 1.61399L54.6713 1.71049L65.1768 16.6687V0.292969H71.5693V25.1192C71.5693 26.5504 70.409 27.7085 68.9805 27.7085H68.7622H68.7613Z" fill="#1D477E"/>
<path d="M0 8.80723C0 3.03334 3.50454 0.292969 9.2742 0.292969H17.0517V5.26478H10.0417C7.52193 5.26478 6.42711 6.61675 6.42711 9.21145V12.062H16.5042V17.0338H6.42711V27.7076H0V8.80723Z" fill="#1D477E"/>
<path d="M20.8134 0.292969H27.166V17.4726C27.166 21.1653 29.1374 22.8459 32.2782 22.8459C35.419 22.8459 37.3531 21.1653 37.3531 17.4726V0.292969H43.7057V17.9114C43.7057 24.5657 39.1054 28.0007 32.2773 28.0007C25.4491 28.0007 20.8125 24.7478 20.8125 17.9114V0.292969H20.8134Z" fill="#1D477E"/>
<path d="M86.1014 22.7358C90.9581 22.7358 93.2205 20.2139 93.2205 15.1337V12.245C93.2205 7.38424 90.7007 5.26478 85.9195 5.26478H82.9988V22.7358H86.1014ZM76.5698 0.292969H86.6852C95.3037 0.292969 99.6103 4.78863 99.6103 11.8799V15.5361C99.6103 22.6629 95.7047 27.7094 86.8679 27.7094H76.5707V0.292969H76.5698Z" fill="#1D477E"/>
<path d="M103.629 0.292969H121.665V5.26478H110.056V11.1479H120.316V16.1206H110.056V19.4455C110.056 21.9337 110.931 22.7358 113.196 22.7358H121.813V27.7085H110.713C106.037 27.7085 103.629 25.0391 103.629 20.2867V0.292969Z" fill="#1D477E"/>
<path d="M125.756 21.8947H126.05C127.692 22.4419 131.198 23.0282 133.24 23.0282H134.191C136.672 23.0282 138.609 22.2971 138.609 19.8108C138.609 17.7996 137.37 17.2152 135.323 16.6307L131.635 15.5345C128.787 14.6924 125.866 12.572 125.866 8.07726C125.866 2.52278 130.612 0 136.163 0H136.82C138.826 0 142.258 0.47524 143.756 1.05973V5.84763H143.465C142.077 5.44705 138.79 4.96999 137.002 4.96999H136.273C134.009 4.96999 132.217 5.62822 132.217 7.78501C132.217 9.68415 133.641 10.234 135.139 10.6729L138.756 11.7699C142.335 12.867 145 14.767 145 19.4448C145 25.3325 140.472 28 134.556 28H133.24C131.16 28 127.436 27.38 125.755 26.8683V21.8965L125.756 21.8947Z" fill="#1D477E"/>
<path d="M68.7613 27.7085H66.3461L54.8441 12.0829V27.7085H48.417V0.292969H52.3289C53.3064 0.292969 54.0312 0.800073 54.5895 1.61399L54.6713 1.71049L65.1768 16.6687V0.292969H71.5693V25.1192C71.5693 26.5504 70.409 27.7085 68.9805 27.7085H68.7622H68.7613Z" fill="#1D477E"/>
<path d="M0 8.80723C0 3.03334 3.50454 0.292969 9.2742 0.292969H17.0517V5.26478H10.0417C7.52193 5.26478 6.42711 6.61675 6.42711 9.21145V12.062H16.5042V17.0338H6.42711V27.7076H0V8.80723Z" fill="#1D477E"/>
<path d="M20.8134 0.292969H27.166V17.4726C27.166 21.1653 29.1374 22.8459 32.2782 22.8459C35.419 22.8459 37.3531 21.1653 37.3531 17.4726V0.292969H43.7057V17.9114C43.7057 24.5657 39.1054 28.0007 32.2773 28.0007C25.4491 28.0007 20.8125 24.7478 20.8125 17.9114V0.292969H20.8134Z" fill="#1D477E"/>
<path d="M86.1014 22.7358C90.9581 22.7358 93.2205 20.2139 93.2205 15.1337V12.245C93.2205 7.38424 90.7007 5.26478 85.9195 5.26478H82.9988V22.7358H86.1014ZM76.5698 0.292969H86.6852C95.3037 0.292969 99.6103 4.78863 99.6103 11.8799V15.5361C99.6103 22.6629 95.7047 27.7094 86.8679 27.7094H76.5707V0.292969H76.5698Z" fill="#1D477E"/>
<path d="M103.629 0.292969H121.665V5.26478H110.056V11.1479H120.316V16.1206H110.056V19.4455C110.056 21.9337 110.931 22.7358 113.196 22.7358H121.813V27.7085H110.713C106.037 27.7085 103.629 25.0391 103.629 20.2867V0.292969Z" fill="#1D477E"/>
<path d="M125.756 21.8947H126.05C127.692 22.4419 131.198 23.0282 133.24 23.0282H134.191C136.672 23.0282 138.609 22.2971 138.609 19.8108C138.609 17.7996 137.37 17.2152 135.323 16.6307L131.635 15.5345C128.787 14.6924 125.866 12.572 125.866 8.07726C125.866 2.52278 130.612 0 136.163 0H136.82C138.826 0 142.258 0.47524 143.756 1.05973V5.84763H143.465C142.077 5.44705 138.79 4.96999 137.002 4.96999H136.273C134.009 4.96999 132.217 5.62822 132.217 7.78501C132.217 9.68415 133.641 10.234 135.139 10.6729L138.756 11.7699C142.335 12.867 145 14.767 145 19.4448C145 25.3325 140.472 28 134.556 28H133.24C131.16 28 127.436 27.38 125.755 26.8683V21.8965L125.756 21.8947Z" fill="#1D477E"/>
<path d="M68.7613 27.7085H66.3461L54.8441 12.0829V27.7085H48.417V0.292969H52.3289C53.3064 0.292969 54.0312 0.800073 54.5895 1.61399L54.6713 1.71049L65.1768 16.6687V0.292969H71.5693V25.1192C71.5693 26.5504 70.409 27.7085 68.9805 27.7085H68.7622H68.7613Z" fill="#1D477E"/>
<path d="M0 8.80723C0 3.03334 3.50454 0.292969 9.2742 0.292969H17.0517V5.26478H10.0417C7.52193 5.26478 6.42711 6.61675 6.42711 9.21145V12.062H16.5042V17.0338H6.42711V27.7076H0V8.80723Z" fill="#1D477E"/>
<path d="M86.1014 22.7358C90.9581 22.7358 93.2205 20.2139 93.2205 15.1337V12.245C93.2205 7.38424 90.7007 5.26478 85.9195 5.26478H82.9988V22.7358H86.1014ZM76.5698 0.292969H86.6852C95.3037 0.292969 99.6103 4.78863 99.6103 11.8799V15.5361C99.6103 22.6629 95.7047 27.7094 86.8679 27.7094H76.5707V0.292969H76.5698Z" fill="#1D477E"/>
<path d="M103.629 0.292969H121.665V5.26478H110.056V11.1479H120.316V16.1206H110.056V19.4455C110.056 21.9337 110.931 22.7358 113.196 22.7358H121.813V27.7085H110.713C106.037 27.7085 103.629 25.0391 103.629 20.2867V0.292969Z" fill="#1D477E"/>
<path d="M125.756 21.8947H126.05C127.692 22.4419 131.198 23.0282 133.24 23.0282H134.191C136.672 23.0282 138.609 22.2971 138.609 19.8108C138.609 17.7996 137.37 17.2152 135.323 16.6307L131.635 15.5345C128.787 14.6924 125.866 12.572 125.866 8.07726C125.866 2.52278 130.612 0 136.163 0H136.82C138.826 0 142.258 0.47524 143.756 1.05973V5.84763H143.465C142.077 5.44705 138.79 4.96999 137.002 4.96999H136.273C134.009 4.96999 132.217 5.62822 132.217 7.78501C132.217 9.68415 133.641 10.234 135.139 10.6729L138.756 11.7699C142.335 12.867 145 14.767 145 19.4448C145 25.3325 140.472 28 134.556 28H133.24C131.16 28 127.436 27.38 125.755 26.8683V21.8965L125.756 21.8947Z" fill="#1D477E"/>
<path d="M68.7613 27.7085H66.3461L54.8441 12.0829V27.7085H48.417V0.292969H52.3289C53.3064 0.292969 54.0312 0.800073 54.5895 1.61399L54.6713 1.71049L65.1768 16.6687V0.292969H71.5693V25.1192C71.5693 26.5504 70.409 27.7085 68.9805 27.7085H68.7622H68.7613Z" fill="#1D477E"/>
</svg>
