<svg width="120" height="23" viewBox="0 0 120 23" fill="none" xmlns="http://www.w3.org/2000/svg">
<path d="M0 7.23311C0 2.49027 2.90031 0.239258 7.6752 0.239258H14.1117V4.32324H8.31035C6.22505 4.32324 5.31898 5.4338 5.31898 7.56516V9.90666H13.6587V13.9906H5.31898V22.7584H0V7.23311Z" fill="white"/>
<path d="M17.2249 0.239258H22.4821V14.3511C22.4821 17.3844 24.1137 18.7649 26.713 18.7649C29.3122 18.7649 30.9129 17.3844 30.9129 14.3511V0.239258H36.1702V14.7116C36.1702 20.1776 32.3631 22.9992 26.7122 22.9992C21.0613 22.9992 17.2241 20.3271 17.2241 14.7116V0.239258H17.2249Z" fill="white"/>
<path d="M71.2561 18.6744C75.2754 18.6744 77.1478 16.6029 77.1478 12.4299V10.057C77.1478 6.06423 75.0625 4.32324 71.1056 4.32324H68.6884V18.6744H71.2561ZM63.3679 0.239258H71.7392C78.8718 0.239258 82.4359 3.93212 82.4359 9.75709V12.7604C82.4359 18.6146 79.2037 22.7599 71.8905 22.7599H63.3687V0.239258H63.3679Z" fill="white"/>
<path d="M85.7622 0.239258H100.688V4.32324H91.0804V9.15582H99.5714V13.2406H91.0804V15.9717C91.0804 18.0156 91.8051 18.6744 93.6797 18.6744H100.811V22.7591H91.6245C87.7549 22.7591 85.7622 20.5665 85.7622 16.6627V0.239258Z" fill="white"/>
<path d="M104.074 17.9849H104.318C105.676 18.4344 108.578 18.916 110.268 18.916H111.055C113.108 18.916 114.711 18.3155 114.711 16.2731C114.711 14.6211 113.686 14.141 111.992 13.6609L108.94 12.7605C106.582 12.0687 104.165 10.327 104.165 6.63489C104.165 2.07228 108.093 0 112.687 0H113.231C114.891 0 117.731 0.390376 118.971 0.870493V4.80341H118.73C117.581 4.47436 114.861 4.08249 113.381 4.08249H112.778C110.904 4.08249 109.422 4.62318 109.422 6.39483C109.422 7.95484 110.6 8.40654 111.84 8.767L114.833 9.66815C117.794 10.5693 120 12.1301 120 15.9725C120 20.8088 116.253 23 111.357 23H110.267C108.546 23 105.465 22.4907 104.073 22.0704V17.9864L104.074 17.9849Z" fill="white"/>
<path d="M56.906 22.7591H54.9073L45.3883 9.92386V22.7591H40.0693V0.239258H43.3068C44.1158 0.239258 44.7155 0.655808 45.1776 1.32438L45.2453 1.40365L53.9395 13.6908V0.239258H59.2299V20.6323C59.2299 21.8079 58.2696 22.7591 57.0874 22.7591H56.9068H56.906Z" fill="white"/>
<path d="M0 7.23311C0 2.49027 2.90031 0.239258 7.6752 0.239258H14.1117V4.32324H8.31035C6.22505 4.32324 5.31898 5.4338 5.31898 7.56516V9.90666H13.6587V13.9906H5.31898V22.7584H0V7.23311Z" fill="white"/>
<path d="M17.2249 0.239258H22.4821V14.3511C22.4821 17.3844 24.1137 18.7649 26.713 18.7649C29.3122 18.7649 30.9129 17.3844 30.9129 14.3511V0.239258H36.1702V14.7116C36.1702 20.1776 32.3631 22.9992 26.7122 22.9992C21.0613 22.9992 17.2241 20.3271 17.2241 14.7116V0.239258H17.2249Z" fill="white"/>
<path d="M71.2561 18.6744C75.2754 18.6744 77.1478 16.6029 77.1478 12.4299V10.057C77.1478 6.06423 75.0625 4.32324 71.1056 4.32324H68.6884V18.6744H71.2561ZM63.3679 0.239258H71.7392C78.8718 0.239258 82.4359 3.93212 82.4359 9.75709V12.7604C82.4359 18.6146 79.2037 22.7599 71.8905 22.7599H63.3687V0.239258H63.3679Z" fill="white"/>
<path d="M85.7622 0.239258H100.688V4.32324H91.0804V9.15582H99.5714V13.2406H91.0804V15.9717C91.0804 18.0156 91.8051 18.6744 93.6797 18.6744H100.811V22.7591H91.6245C87.7549 22.7591 85.7622 20.5665 85.7622 16.6627V0.239258Z" fill="white"/>
<path d="M104.074 17.9849H104.318C105.676 18.4344 108.578 18.916 110.268 18.916H111.055C113.108 18.916 114.711 18.3155 114.711 16.2731C114.711 14.6211 113.686 14.141 111.992 13.6609L108.94 12.7605C106.582 12.0687 104.165 10.327 104.165 6.63489C104.165 2.07228 108.093 0 112.687 0H113.231C114.891 0 117.731 0.390376 118.971 0.870493V4.80341H118.73C117.581 4.47436 114.861 4.08249 113.381 4.08249H112.778C110.904 4.08249 109.422 4.62318 109.422 6.39483C109.422 7.95484 110.6 8.40654 111.84 8.767L114.833 9.66815C117.794 10.5693 120 12.1301 120 15.9725C120 20.8088 116.253 23 111.357 23H110.267C108.546 23 105.465 22.4907 104.073 22.0704V17.9864L104.074 17.9849Z" fill="white"/>
<path d="M56.906 22.7591H54.9073L45.3883 9.92386V22.7591H40.0693V0.239258H43.3068C44.1158 0.239258 44.7155 0.655808 45.1776 1.32438L45.2453 1.40365L53.9395 13.6908V0.239258H59.2299V20.6323C59.2299 21.8079 58.2696 22.7591 57.0874 22.7591H56.9068H56.906Z" fill="white"/>
<path d="M0 7.23311C0 2.49027 2.90031 0.239258 7.6752 0.239258H14.1117V4.32324H8.31035C6.22505 4.32324 5.31898 5.4338 5.31898 7.56516V9.90666H13.6587V13.9906H5.31898V22.7584H0V7.23311Z" fill="white"/>
<path d="M17.2249 0.239258H22.4821V14.3511C22.4821 17.3844 24.1137 18.7649 26.713 18.7649C29.3122 18.7649 30.9129 17.3844 30.9129 14.3511V0.239258H36.1702V14.7116C36.1702 20.1776 32.3631 22.9992 26.7122 22.9992C21.0613 22.9992 17.2241 20.3271 17.2241 14.7116V0.239258H17.2249Z" fill="white"/>
<path d="M71.2561 18.6744C75.2754 18.6744 77.1478 16.6029 77.1478 12.4299V10.057C77.1478 6.06423 75.0625 4.32324 71.1056 4.32324H68.6884V18.6744H71.2561ZM63.3679 0.239258H71.7392C78.8718 0.239258 82.4359 3.93212 82.4359 9.75709V12.7604C82.4359 18.6146 79.2037 22.7599 71.8905 22.7599H63.3687V0.239258H63.3679Z" fill="white"/>
<path d="M85.7622 0.239258H100.688V4.32324H91.0804V9.15582H99.5714V13.2406H91.0804V15.9717C91.0804 18.0156 91.8051 18.6744 93.6797 18.6744H100.811V22.7591H91.6245C87.7549 22.7591 85.7622 20.5665 85.7622 16.6627V0.239258Z" fill="white"/>
<path d="M104.074 17.9849H104.318C105.676 18.4344 108.578 18.916 110.268 18.916H111.055C113.108 18.916 114.711 18.3155 114.711 16.2731C114.711 14.6211 113.686 14.141 111.992 13.6609L108.94 12.7605C106.582 12.0687 104.165 10.327 104.165 6.63489C104.165 2.07228 108.093 0 112.687 0H113.231C114.891 0 117.731 0.390376 118.971 0.870493V4.80341H118.73C117.581 4.47436 114.861 4.08249 113.381 4.08249H112.778C110.904 4.08249 109.422 4.62318 109.422 6.39483C109.422 7.95484 110.6 8.40654 111.84 8.767L114.833 9.66815C117.794 10.5693 120 12.1301 120 15.9725C120 20.8088 116.253 23 111.357 23H110.267C108.546 23 105.465 22.4907 104.073 22.0704V17.9864L104.074 17.9849Z" fill="white"/>
<path d="M56.906 22.7591H54.9073L45.3883 9.92386V22.7591H40.0693V0.239258H43.3068C44.1158 0.239258 44.7155 0.655808 45.1776 1.32438L45.2453 1.40365L53.9395 13.6908V0.239258H59.2299V20.6323C59.2299 21.8079 58.2696 22.7591 57.0874 22.7591H56.9068H56.906Z" fill="white"/>
<path d="M0 7.23311C0 2.49027 2.90031 0.239258 7.6752 0.239258H14.1117V4.32324H8.31035C6.22505 4.32324 5.31898 5.4338 5.31898 7.56516V9.90666H13.6587V13.9906H5.31898V22.7584H0V7.23311Z" fill="white"/>
<path d="M17.2249 0.239258H22.4821V14.3511C22.4821 17.3844 24.1137 18.7649 26.713 18.7649C29.3122 18.7649 30.9129 17.3844 30.9129 14.3511V0.239258H36.1702V14.7116C36.1702 20.1776 32.3631 22.9992 26.7122 22.9992C21.0613 22.9992 17.2241 20.3271 17.2241 14.7116V0.239258H17.2249Z" fill="white"/>
<path d="M71.2561 18.6744C75.2754 18.6744 77.1478 16.6029 77.1478 12.4299V10.057C77.1478 6.06423 75.0625 4.32324 71.1056 4.32324H68.6884V18.6744H71.2561ZM63.3679 0.239258H71.7392C78.8718 0.239258 82.4359 3.93212 82.4359 9.75709V12.7604C82.4359 18.6146 79.2037 22.7599 71.8905 22.7599H63.3687V0.239258H63.3679Z" fill="white"/>
<path d="M85.7622 0.239258H100.688V4.32324H91.0804V9.15582H99.5714V13.2406H91.0804V15.9717C91.0804 18.0156 91.8051 18.6744 93.6797 18.6744H100.811V22.7591H91.6245C87.7549 22.7591 85.7622 20.5665 85.7622 16.6627V0.239258Z" fill="white"/>
<path d="M104.074 17.9849H104.318C105.676 18.4344 108.578 18.916 110.268 18.916H111.055C113.108 18.916 114.711 18.3155 114.711 16.2731C114.711 14.6211 113.686 14.141 111.992 13.6609L108.94 12.7605C106.582 12.0687 104.165 10.327 104.165 6.63489C104.165 2.07228 108.093 0 112.687 0H113.231C114.891 0 117.731 0.390376 118.971 0.870493V4.80341H118.73C117.581 4.47436 114.861 4.08249 113.381 4.08249H112.778C110.904 4.08249 109.422 4.62318 109.422 6.39483C109.422 7.95484 110.6 8.40654 111.84 8.767L114.833 9.66815C117.794 10.5693 120 12.1301 120 15.9725C120 20.8088 116.253 23 111.357 23H110.267C108.546 23 105.465 22.4907 104.073 22.0704V17.9864L104.074 17.9849Z" fill="white"/>
<path d="M56.906 22.7591H54.9073L45.3883 9.92386V22.7591H40.0693V0.239258H43.3068C44.1158 0.239258 44.7155 0.655808 45.1776 1.32438L45.2453 1.40365L53.9395 13.6908V0.239258H59.2299V20.6323C59.2299 21.8079 58.2696 22.7591 57.0874 22.7591H56.9068H56.906Z" fill="white"/>
<path d="M0 7.23311C0 2.49027 2.90031 0.239258 7.6752 0.239258H14.1117V4.32324H8.31035C6.22505 4.32324 5.31898 5.4338 5.31898 7.56516V9.90666H13.6587V13.9906H5.31898V22.7584H0V7.23311Z" fill="white"/>
<path d="M17.2249 0.239258H22.4821V14.3511C22.4821 17.3844 24.1137 18.7649 26.713 18.7649C29.3122 18.7649 30.9129 17.3844 30.9129 14.3511V0.239258H36.1702V14.7116C36.1702 20.1776 32.3631 22.9992 26.7122 22.9992C21.0613 22.9992 17.2241 20.3271 17.2241 14.7116V0.239258H17.2249Z" fill="white"/>
<path d="M71.2561 18.6744C75.2754 18.6744 77.1478 16.6029 77.1478 12.4299V10.057C77.1478 6.06423 75.0625 4.32324 71.1056 4.32324H68.6884V18.6744H71.2561ZM63.3679 0.239258H71.7392C78.8718 0.239258 82.4359 3.93212 82.4359 9.75709V12.7604C82.4359 18.6146 79.2037 22.7599 71.8905 22.7599H63.3687V0.239258H63.3679Z" fill="white"/>
<path d="M85.7622 0.239258H100.688V4.32324H91.0804V9.15582H99.5714V13.2406H91.0804V15.9717C91.0804 18.0156 91.8051 18.6744 93.6797 18.6744H100.811V22.7591H91.6245C87.7549 22.7591 85.7622 20.5665 85.7622 16.6627V0.239258Z" fill="white"/>
<path d="M104.074 17.9849H104.318C105.676 18.4344 108.578 18.916 110.268 18.916H111.055C113.108 18.916 114.711 18.3155 114.711 16.2731C114.711 14.6211 113.686 14.141 111.992 13.6609L108.94 12.7605C106.582 12.0687 104.165 10.327 104.165 6.63489C104.165 2.07228 108.093 0 112.687 0H113.231C114.891 0 117.731 0.390376 118.971 0.870493V4.80341H118.73C117.581 4.47436 114.861 4.08249 113.381 4.08249H112.778C110.904 4.08249 109.422 4.62318 109.422 6.39483C109.422 7.95484 110.6 8.40654 111.84 8.767L114.833 9.66815C117.794 10.5693 120 12.1301 120 15.9725C120 20.8088 116.253 23 111.357 23H110.267C108.546 23 105.465 22.4907 104.073 22.0704V17.9864L104.074 17.9849Z" fill="white"/>
<path d="M56.906 22.7591H54.9073L45.3883 9.92386V22.7591H40.0693V0.239258H43.3068C44.1158 0.239258 44.7155 0.655808 45.1776 1.32438L45.2453 1.40365L53.9395 13.6908V0.239258H59.2299V20.6323C59.2299 21.8079 58.2696 22.7591 57.0874 22.7591H56.9068H56.906Z" fill="white"/>
<path d="M0 7.23311C0 2.49027 2.90031 0.239258 7.6752 0.239258H14.1117V4.32324H8.31035C6.22505 4.32324 5.31898 5.4338 5.31898 7.56516V9.90666H13.6587V13.9906H5.31898V22.7584H0V7.23311Z" fill="white"/>
<path d="M17.2249 0.239258H22.4821V14.3511C22.4821 17.3844 24.1137 18.7649 26.713 18.7649C29.3122 18.7649 30.9129 17.3844 30.9129 14.3511V0.239258H36.1702V14.7116C36.1702 20.1776 32.3631 22.9992 26.7122 22.9992C21.0613 22.9992 17.2241 20.3271 17.2241 14.7116V0.239258H17.2249Z" fill="white"/>
<path d="M71.2561 18.6744C75.2754 18.6744 77.1478 16.6029 77.1478 12.4299V10.057C77.1478 6.06423 75.0625 4.32324 71.1056 4.32324H68.6884V18.6744H71.2561ZM63.3679 0.239258H71.7392C78.8718 0.239258 82.4359 3.93212 82.4359 9.75709V12.7604C82.4359 18.6146 79.2037 22.7599 71.8905 22.7599H63.3687V0.239258H63.3679Z" fill="white"/>
<path d="M85.7622 0.239258H100.688V4.32324H91.0804V9.15582H99.5714V13.2406H91.0804V15.9717C91.0804 18.0156 91.8051 18.6744 93.6797 18.6744H100.811V22.7591H91.6245C87.7549 22.7591 85.7622 20.5665 85.7622 16.6627V0.239258Z" fill="white"/>
<path d="M104.074 17.9849H104.318C105.676 18.4344 108.578 18.916 110.268 18.916H111.055C113.108 18.916 114.711 18.3155 114.711 16.2731C114.711 14.6211 113.686 14.141 111.992 13.6609L108.94 12.7605C106.582 12.0687 104.165 10.327 104.165 6.63489C104.165 2.07228 108.093 0 112.687 0H113.231C114.891 0 117.731 0.390376 118.971 0.870493V4.80341H118.73C117.581 4.47436 114.861 4.08249 113.381 4.08249H112.778C110.904 4.08249 109.422 4.62318 109.422 6.39483C109.422 7.95484 110.6 8.40654 111.84 8.767L114.833 9.66815C117.794 10.5693 120 12.1301 120 15.9725C120 20.8088 116.253 23 111.357 23H110.267C108.546 23 105.465 22.4907 104.073 22.0704V17.9864L104.074 17.9849Z" fill="white"/>
<path d="M56.906 22.7591H54.9073L45.3883 9.92386V22.7591H40.0693V0.239258H43.3068C44.1158 0.239258 44.7155 0.655808 45.1776 1.32438L45.2453 1.40365L53.9395 13.6908V0.239258H59.2299V20.6323C59.2299 21.8079 58.2696 22.7591 57.0874 22.7591H56.9068H56.906Z" fill="white"/>
<path d="M0 7.23311C0 2.49027 2.90031 0.239258 7.6752 0.239258H14.1117V4.32324H8.31035C6.22505 4.32324 5.31898 5.4338 5.31898 7.56516V9.90666H13.6587V13.9906H5.31898V22.7584H0V7.23311Z" fill="white"/>
<path d="M71.2561 18.6744C75.2754 18.6744 77.1478 16.6029 77.1478 12.4299V10.057C77.1478 6.06423 75.0625 4.32324 71.1056 4.32324H68.6884V18.6744H71.2561ZM63.3679 0.239258H71.7392C78.8718 0.239258 82.4359 3.93212 82.4359 9.75709V12.7604C82.4359 18.6146 79.2037 22.7599 71.8905 22.7599H63.3687V0.239258H63.3679Z" fill="white"/>
<path d="M85.7622 0.239258H100.688V4.32324H91.0804V9.15582H99.5714V13.2406H91.0804V15.9717C91.0804 18.0156 91.8051 18.6744 93.6797 18.6744H100.811V22.7591H91.6245C87.7549 22.7591 85.7622 20.5665 85.7622 16.6627V0.239258Z" fill="white"/>
<path d="M104.074 17.9849H104.318C105.676 18.4344 108.578 18.916 110.268 18.916H111.055C113.108 18.916 114.711 18.3155 114.711 16.2731C114.711 14.6211 113.686 14.141 111.992 13.6609L108.94 12.7605C106.582 12.0687 104.165 10.327 104.165 6.63489C104.165 2.07228 108.093 0 112.687 0H113.231C114.891 0 117.731 0.390376 118.971 0.870493V4.80341H118.73C117.581 4.47436 114.861 4.08249 113.381 4.08249H112.778C110.904 4.08249 109.422 4.62318 109.422 6.39483C109.422 7.95484 110.6 8.40654 111.84 8.767L114.833 9.66815C117.794 10.5693 120 12.1301 120 15.9725C120 20.8088 116.253 23 111.357 23H110.267C108.546 23 105.465 22.4907 104.073 22.0704V17.9864L104.074 17.9849Z" fill="white"/>
<path d="M56.906 22.7591H54.9073L45.3883 9.92386V22.7591H40.0693V0.239258H43.3068C44.1158 0.239258 44.7155 0.655808 45.1776 1.32438L45.2453 1.40365L53.9395 13.6908V0.239258H59.2299V20.6323C59.2299 21.8079 58.2696 22.7591 57.0874 22.7591H56.9068H56.906Z" fill="white"/>
</svg>
