<svg width="20" height="20" viewBox="0 0 20 20" fill="none" xmlns="http://www.w3.org/2000/svg">
<path d="M10.8572 1.66797C11.7951 1.66952 12.2703 1.67449 12.681 1.68671L12.8427 1.69199C13.0296 1.69864 13.2139 1.70697 13.4362 1.71739C14.3229 1.75836 14.9278 1.89864 15.4591 2.10489C16.0083 2.31669 16.4722 2.6028 16.9354 3.066C17.3979 3.52919 17.6841 3.99447 17.8966 4.54239C18.1021 5.07294 18.2424 5.6785 18.2841 6.5653C18.294 6.78753 18.302 6.97186 18.3086 7.15873L18.3138 7.32047C18.326 7.73108 18.3316 8.20641 18.3333 9.14428L18.334 9.76561C18.3341 9.84153 18.3341 9.91986 18.3341 10.0007L18.334 10.2358L18.3335 10.8572C18.3319 11.795 18.327 12.2704 18.3147 12.6809L18.3094 12.8427C18.3028 13.0296 18.2945 13.2139 18.2841 13.4361C18.2431 14.3229 18.1021 14.9278 17.8966 15.459C17.6847 16.0084 17.3979 16.4723 16.9354 16.9354C16.4722 17.3979 16.0062 17.684 15.4591 17.8965C14.9278 18.1021 14.3229 18.2424 13.4362 18.284C13.2139 18.2939 13.0296 18.302 12.8427 18.3085L12.681 18.3138C12.2703 18.326 11.7951 18.3315 10.8572 18.3334L10.2358 18.334C10.1599 18.334 10.0816 18.334 10.0007 18.334H9.76565L9.14424 18.3334C8.2064 18.3319 7.73109 18.3269 7.32046 18.3147L7.15873 18.3094C6.97185 18.3028 6.78752 18.2944 6.5653 18.284C5.67849 18.2431 5.07433 18.1021 4.54239 17.8965C3.99377 17.6848 3.52919 17.3979 3.06599 16.9354C2.6028 16.4723 2.31739 16.0063 2.10489 15.459C1.89864 14.9278 1.75905 14.3229 1.71739 13.4361C1.70749 13.2139 1.69941 13.0296 1.69287 12.8427L1.68763 12.6809C1.67544 12.2704 1.66988 11.795 1.66808 10.8572L1.66797 9.14428C1.66952 8.20641 1.67448 7.73108 1.6867 7.32047L1.69199 7.15873C1.69864 6.97186 1.70697 6.78753 1.71739 6.5653C1.75835 5.6778 1.89864 5.07364 2.10489 4.54239C2.31669 3.99378 2.6028 3.52919 3.06599 3.066C3.52919 2.6028 3.99447 2.31739 4.54239 2.10489C5.07364 1.89864 5.6778 1.75905 6.5653 1.71739C6.78752 1.70749 6.97185 1.69942 7.15873 1.69288L7.32046 1.68764C7.73109 1.67544 8.2064 1.66988 9.14424 1.66808L10.8572 1.66797ZM10.0007 5.83405C7.6983 5.83405 5.83405 7.70033 5.83405 10.0007C5.83405 12.3031 7.70033 14.1674 10.0007 14.1674C12.3032 14.1674 14.1674 12.3011 14.1674 10.0007C14.1674 7.6983 12.3011 5.83405 10.0007 5.83405ZM10.0007 7.50072C11.3815 7.50072 12.5007 8.61961 12.5007 10.0007C12.5007 11.3814 11.3818 12.5007 10.0007 12.5007C8.61999 12.5007 7.50072 11.3819 7.50072 10.0007C7.50072 8.61994 8.61957 7.50072 10.0007 7.50072ZM14.3757 4.58405C13.8013 4.58405 13.3341 5.05064 13.3341 5.62501C13.3341 6.19939 13.8007 6.66669 14.3757 6.66669C14.9501 6.66669 15.4174 6.20011 15.4174 5.62501C15.4174 5.05064 14.9493 4.58334 14.3757 4.58405Z" fill="#FDFDFE"/>
</svg>
