<svg width="20" height="20" viewBox="0 0 20 20" fill="none" xmlns="http://www.w3.org/2000/svg">
<path d="M5.78357 4.16742C5.78326 4.84601 5.37157 5.45666 4.74262 5.71142C4.11367 5.96619 3.39306 5.81419 2.92059 5.32711C2.44811 4.84001 2.31813 4.11511 2.59192 3.49421C2.86572 2.87331 3.48862 2.4804 4.1669 2.50075C5.0678 2.5278 5.78398 3.26612 5.78357 4.16742ZM5.83357 7.06742H2.50024V17.5007H5.83357V7.06742ZM11.1003 7.06742H7.78357V17.5007H11.0669V12.0257C11.0669 8.97573 15.0419 8.6924 15.0419 12.0257V17.5007H18.3336V10.8924C18.3336 5.75075 12.4503 5.94242 11.0669 8.4674L11.1003 7.06742Z" fill="white"/>
</svg>
