<svg width="20" height="20" viewBox="0 0 20 20" fill="none" xmlns="http://www.w3.org/2000/svg">
<path fill-rule="evenodd" clip-rule="evenodd" d="M10.0001 3.33325C10.7126 3.33325 11.4434 3.35159 12.1517 3.38159L12.9884 3.42159L13.7892 3.46909L14.5392 3.51992L15.2242 3.57325C15.9677 3.62983 16.6674 3.94695 17.2 4.46875C17.7327 4.99056 18.0641 5.68358 18.1359 6.42575L18.1692 6.77992L18.2317 7.53825C18.2901 8.32408 18.3334 9.18075 18.3334 9.99992C18.3334 10.8191 18.2901 11.6758 18.2317 12.4616L18.1692 13.2199L18.1359 13.5741C18.0641 14.3164 17.7325 15.0095 17.1997 15.5313C16.6669 16.0532 15.9671 16.3702 15.2234 16.4266L14.5401 16.4791L13.7901 16.5308L12.9884 16.5783L12.1517 16.6183C11.4349 16.6493 10.7176 16.6654 10.0001 16.6666C9.2826 16.6654 8.56522 16.6493 7.84841 16.6183L7.01175 16.5783L6.21091 16.5308L5.46091 16.4791L4.77591 16.4266C4.03243 16.37 3.33275 16.0529 2.80012 15.5311C2.26749 15.0093 1.93607 14.3163 1.86425 13.5741L1.83091 13.2199L1.76841 12.4616C1.70494 11.6425 1.67103 10.8214 1.66675 9.99992C1.66675 9.18075 1.71008 8.32408 1.76841 7.53825L1.83091 6.77992L1.86425 6.42575C1.93605 5.68371 2.26734 4.9908 2.7998 4.46901C3.33226 3.94722 4.03174 3.63002 4.77508 3.57325L5.45925 3.51992L6.20925 3.46909L7.01091 3.42159L7.84758 3.38159C8.56467 3.35052 9.28232 3.33441 10.0001 3.33325ZM8.33341 7.97908V12.0208C8.33341 12.4058 8.75008 12.6458 9.08341 12.4541L12.5834 10.4333C12.6596 10.3894 12.7228 10.3263 12.7668 10.2502C12.8108 10.1741 12.834 10.0878 12.834 9.99992C12.834 9.91204 12.8108 9.82572 12.7668 9.74964C12.7228 9.67356 12.6596 9.61043 12.5834 9.56658L9.08341 7.54659C9.00738 7.50269 8.92113 7.47958 8.83333 7.4796C8.74554 7.47961 8.65929 7.50274 8.58328 7.54667C8.50726 7.59059 8.44414 7.65375 8.40028 7.72981C8.35642 7.80586 8.33336 7.89212 8.33341 7.97992V7.97908Z" fill="white"/>
</svg>
